<?xml version="1.0" standalone="no"?>
<!DOCTYPE svg PUBLIC "-//W3C//DTD SVG 20010904//EN"
 "http://www.w3.org/TR/2001/REC-SVG-20010904/DTD/svg10.dtd">
<svg version="1.0" xmlns="http://www.w3.org/2000/svg"
 width="62.000000pt" height="73.000000pt" viewBox="0 0 62.000000 73.000000"
 preserveAspectRatio="xMidYMid meet">
<metadata>
Created by potrace 1.16, written by Peter Selinger 2001-2019
</metadata>
<g transform="translate(0.000000,73.000000) scale(0.100000,-0.100000)"
fill="#000000" stroke="none">
<path d="M235 703 c-37 -9 -38 -21 -7 -63 35 -49 68 -74 82 -65 6 3 10 29 10
56 l0 49 24 -15 c21 -14 24 -14 36 0 16 19 6 31 -32 40 -18 5 -28 3 -28 -4 0
-8 -5 -9 -19 -1 -20 10 -32 11 -66 3z"/>
<path d="M370 608 c-62 -99 -68 -124 -69 -275 -1 -125 0 -133 20 -144 18 -9
25 -8 39 7 29 31 182 247 191 271 11 30 -12 104 -46 148 -21 28 -71 65 -87 65
-2 0 -24 -32 -48 -72z"/>
<path d="M132 648 c-28 -31 -62 -107 -62 -141 0 -20 24 -62 77 -135 125 -175
133 -175 133 -4 0 123 -1 131 -30 189 -30 60 -71 113 -88 113 -5 0 -18 -10
-30 -22z"/>
<path d="M62 338 c6 -128 34 -200 97 -246 42 -30 127 -60 138 -48 14 13 -29
102 -115 238 -48 77 -95 144 -106 150 -18 10 -19 6 -14 -94z"/>
<path d="M459 299 c-43 -68 -85 -147 -95 -175 -17 -49 -17 -52 0 -69 16 -17
20 -16 73 11 45 24 62 39 87 84 27 48 31 65 34 154 3 67 1 97 -6 92 -6 -3 -12
1 -14 10 -2 9 -35 -36 -79 -107z"/>
</g>
</svg>
